<svg id="Mni_Logo_-_Blanco" data-name="Mni Logo - Blanco" xmlns="http://www.w3.org/2000/svg" viewBox="0 0 13.84 15.95"><defs><style>.cls-1{fill:#fff;}.cls-2{fill:#f60005;}</style></defs><title>v3.0.0-Logo-Blanco</title><rect class="cls-1" x="3.9" y="5.83" width="1.27" height="4.11"/><polygon class="cls-1" points="8.75 7.12 7.99 7.88 7.23 7.12 5.96 5.85 5.96 7.39 5.96 9.94 7.23 9.94 7.23 8.71 7.23 8.68 7.24 8.67 7.97 9.4 7.99 9.42 8 9.4 8.74 8.67 8.75 8.68 8.75 8.71 8.75 9.94 10.02 9.94 10.02 7.39 10.02 5.85 8.75 7.12"/><polygon class="cls-2" points="3.9 10.38 3.92 11.91 8.9 14.79 13.83 11.91 13.83 10.38 8.87 13.21 3.9 10.38"/><polygon class="cls-2" points="13.84 9.7 13.82 3.99 12.49 3.22 12.46 8.95 7.54 11.83 8.86 12.57 13.84 9.7"/><polygon class="cls-2" points="11.9 2.84 6.95 0 5.61 0.77 10.56 3.67 10.59 9.35 11.9 8.58 11.9 2.84"/><polygon class="cls-2" points="9.92 3.94 9.94 5.47 9.94 5.47 9.92 3.93 4.95 1.06 0.01 3.93 0.01 3.94 4.94 1.06 9.92 3.94"/><polygon class="cls-2" points="4.97 2.63 9.94 5.47 9.92 3.94 4.94 1.06 0.01 3.94 0.01 5.47 4.97 2.63"/><polygon class="cls-2" points="0 6.25 0.02 11.96 1.35 12.73 1.38 7 6.3 4.13 4.98 3.38 0 6.25"/><polygon class="cls-2" points="2.01 13.12 6.97 15.95 8.3 15.18 3.36 12.29 3.32 6.6 2.01 7.37 2.01 13.12"/></svg>